<svg width="492" height="85" viewBox="0 0 492 85" fill="none" xmlns="http://www.w3.org/2000/svg">
<path d="M59.2299 27.6448L62.4276 11.9113L58.1359 16.2022L59.2299 27.6448Z" fill="#C6C6C6" stroke="#131415" stroke-width="0.0336825"/>
<path d="M58.1445 16.2052L42.8662 0.151733L62.452 11.8637L58.1445 16.2052Z" fill="#A0A0A0" stroke="#131415" stroke-width="0.0336825"/>
<path d="M65.3073 15.3303L62.4462 11.8639L59.2316 27.6479L65.3073 15.3303Z" fill="#D4D4D4" stroke="#131415" stroke-width="0.0336825"/>
<path d="M70.2722 44.8785L59.2316 27.6305L65.3241 15.3634L70.2722 44.8785Z" fill="#797C7F" stroke="#131415" stroke-width="0.0336825"/>
<path d="M60.2687 60.9476L70.2658 44.8775L66.9335 39.6947L60.2687 60.9476Z" fill="#797C7F" stroke="#131415" stroke-width="0.0336825"/>
<path d="M66.9399 39.6775L59.2317 27.6292L58.4406 30.0018L66.9399 39.6775Z" fill="#C6C6C6" stroke="#131415" stroke-width="0.0336825"/>
<path d="M60.2758 60.9508L58.4582 30.0222L66.9405 39.6979L60.2758 60.9508Z" fill="#A0A0A0" stroke="#131415" stroke-width="0.0336825"/>
<path d="M55.3936 34.9987L58.4735 30.2029L59.3319 44.7585L55.3936 34.9987Z" fill="#D4D4D4" stroke="#131415" stroke-width="0.0336825"/>
<path d="M59.9041 54.638L55.3936 35.0005L59.3319 44.7098L59.9041 54.638Z" fill="#F9F9F9" stroke="#131415" stroke-width="0.0336825"/>
<path d="M44.8524 68.0185L55.3857 35.0197L59.8951 54.6406L44.8524 68.0185Z" fill="#797C7F" stroke="#131415" stroke-width="0.0336825"/>
<path d="M60.269 60.9342L59.8988 54.6239L44.8057 68.0523L60.269 60.9342Z" fill="#525456" stroke="#131415" stroke-width="0.0336825"/>
<path d="M47.2135 55.8338L46.8096 43.146L51.6062 39.8983L47.2135 55.8338Z" fill="#F0F0F0" stroke="#131415" stroke-width="0.0336825"/>
<path d="M45.7798 46.126L44.2753 51.9159L46.1802 53.9135L45.7798 46.126Z" fill="#F0F0F0" stroke="#131415" stroke-width="0.0336825"/>
<path d="M35.2665 84.1445V30.0784L44.8933 43.3215L35.2665 84.1445Z" fill="#A2A2A2" stroke="#131415" stroke-width="0.0336825"/>
<path d="M43.3796 63.6181L37.9267 72.8563L40.4007 62.3729L43.3796 63.6181Z" fill="#9E9E9E" stroke="#131415" stroke-width="0.0336825"/>
<path d="M42.6516 79.4997L41.9111 66.0884L38.747 71.4563L42.6516 79.4997Z" fill="#828282" stroke="#131415" stroke-width="0.0336825"/>
<path d="M11.2732 27.6382L8.07543 11.9047L12.3671 16.1956L11.2732 27.6382Z" fill="#C6C6C6" stroke="#131415" stroke-width="0.0336825"/>
<path d="M12.3592 16.1973L27.6375 0.143799L8.05172 11.8558L12.3592 16.1973Z" fill="#A0A0A0" stroke="#131415" stroke-width="0.0336825"/>
<path d="M5.19572 15.3213L8.05684 11.8549L11.2714 27.6389L5.19572 15.3213Z" fill="#D4D4D4" stroke="#131415" stroke-width="0.0336825"/>
<path d="M0.230837 44.8695L11.2714 27.6215L5.17889 15.3544L0.230837 44.8695Z" fill="#797C7F" stroke="#131415" stroke-width="0.0336825"/>
<path d="M10.2225 60.9392L0.225413 44.8691L3.55778 39.6863L10.2225 60.9392Z" fill="#797C7F" stroke="#131415" stroke-width="0.0336825"/>
<path d="M3.5632 39.6694L11.2714 27.6211L12.0624 29.9937L3.5632 39.6694Z" fill="#C6C6C6" stroke="#131415" stroke-width="0.0336825"/>
<path d="M10.2213 60.9418L12.039 30.0132L3.55661 39.6889L10.2213 60.9418Z" fill="#A0A0A0" stroke="#131415" stroke-width="0.0336825"/>
<path d="M15.1093 34.9906L12.0294 30.1948L11.1711 44.7504L15.1093 34.9906Z" fill="#D4D4D4" stroke="#131415" stroke-width="0.0336825"/>
<path d="M10.5988 54.6287L15.1093 34.9912L11.1711 44.7006L10.5988 54.6287Z" fill="#F9F9F9" stroke="#131415" stroke-width="0.0336825"/>
<path d="M25.657 68.008L15.1238 35.0092L10.6144 54.6301L25.657 68.008Z" fill="#797C7F" stroke="#131415" stroke-width="0.0336825"/>
<path d="M10.223 60.925L10.5932 54.6146L25.6864 68.043L10.223 60.925Z" fill="#525456" stroke="#131415" stroke-width="0.0336825"/>
<path d="M23.2902 55.8247L23.6942 43.137L18.8976 39.8893L23.2902 55.8247Z" fill="#F0F0F0" stroke="#131415" stroke-width="0.0336825"/>
<path d="M24.7238 46.1272L26.2285 51.9171L24.3235 53.9147L24.7238 46.1272Z" fill="#F0F0F0" stroke="#131415" stroke-width="0.0336825"/>
<path d="M35.2372 84.1282V30.0621L25.6104 43.3052L35.2372 84.1282Z" fill="#C3C3C3" stroke="#131415" stroke-width="0.0336825"/>
<path d="M27.124 63.6003L32.577 72.8385L30.1029 62.3551L27.124 63.6003Z" fill="#9E9E9E" stroke="#131415" stroke-width="0.0336825"/>
<path d="M27.8463 79.4851L28.5868 66.0737L31.7508 71.4416L27.8463 79.4851Z" fill="#828282" stroke="#131415" stroke-width="0.0336825"/>
<path d="M25.0536 42.6914L30.2036 31.0301L34.714 29.6334L25.0536 42.6914Z" fill="#D4D4D4" stroke="#131415" stroke-width="0.0336825"/>
<path d="M45.3255 42.8588L38.6944 26.8561L35.665 29.6326L45.3255 42.8588Z" fill="#D4D4D4" stroke="#131415" stroke-width="0.0336825"/>
<path fill-rule="evenodd" clip-rule="evenodd" d="M30.3539 30.3389L31.0443 25.7784L20.991 24.1293L27.3227 23.3047L17.7409 19.451L30.1181 20.0904L28.6531 17.8354L34.0923 20.3092L44.4824 20.7972L47.7999 27.9493L43.5563 24.9034L40.3735 24.3649L35.5405 28.7739L30.3539 30.3389ZM34.3115 23.2017L39.0408 23.4709L37.3073 25.0527L34.3115 23.2017Z" fill="#BBBBBB"/>
<path d="M31.0443 25.7784L31.061 25.781L31.0635 25.7645L31.047 25.7618L31.0443 25.7784ZM30.3539 30.3389L30.3372 30.3364L30.3332 30.3627L30.3587 30.355L30.3539 30.3389ZM20.991 24.1293L20.9888 24.1126L20.9882 24.1459L20.991 24.1293ZM27.3227 23.3047L27.3249 23.3214L27.3887 23.3131L27.329 23.289L27.3227 23.3047ZM17.7409 19.451L17.7418 19.4342L17.7346 19.4666L17.7409 19.451ZM30.1181 20.0904L30.1173 20.1073L30.1502 20.109L30.1322 20.0813L30.1181 20.0904ZM28.6531 17.8354L28.66 17.8201L28.6075 17.7962L28.6389 17.8446L28.6531 17.8354ZM34.0923 20.3092L34.0848 20.3257L34.0915 20.326L34.0923 20.3092ZM44.4824 20.7972L44.4977 20.7902L44.4934 20.7809L44.4832 20.7804L44.4824 20.7972ZM47.7999 27.9493L47.7901 27.963L47.8421 28.0003L47.8152 27.9422L47.7999 27.9493ZM43.5563 24.9034L43.5672 24.8881L43.5591 24.8868L43.5563 24.9034ZM40.3735 24.3649L40.3764 24.3482L40.3683 24.3469L40.3622 24.3524L40.3735 24.3649ZM35.5405 28.7739L35.5459 28.7918L35.5519 28.7863L35.5405 28.7739ZM39.0408 23.4709L39.0521 23.4833L39.0817 23.4564L39.0417 23.4541L39.0408 23.4709ZM34.3115 23.2017L34.3125 23.1848L34.3027 23.216L34.3115 23.2017ZM37.3073 25.0527L37.2984 25.067L37.3092 25.0737L37.3186 25.0651L37.3073 25.0527ZM31.0277 25.7759L30.3372 30.3364L30.3705 30.3414L31.061 25.781L31.0277 25.7759ZM20.9882 24.1459L31.0416 25.7951L31.047 25.7618L20.9937 24.1126L20.9882 24.1459ZM27.3205 23.288L20.9888 24.1126L20.9931 24.146L27.3249 23.3214L27.3205 23.288ZM17.7346 19.4666L27.3164 23.3203L27.329 23.289L17.7472 19.4353L17.7346 19.4666ZM30.119 20.0736L17.7418 19.4342L17.74 19.4678L30.1173 20.1073L30.119 20.0736ZM28.6389 17.8446L30.104 20.0996L30.1322 20.0813L28.6672 17.8263L28.6389 17.8446ZM34.0993 20.2939L28.66 17.8201L28.6461 17.8508L34.0853 20.3245L34.0993 20.2939ZM44.4832 20.7804L34.0931 20.2924L34.0915 20.326L44.4817 20.8141L44.4832 20.7804ZM47.8152 27.9422L44.4977 20.7902L44.4672 20.8043L47.7846 27.9564L47.8152 27.9422ZM43.5464 24.917L47.7901 27.963L47.8097 27.9356L43.5661 24.8897L43.5464 24.917ZM40.3707 24.3815L43.5535 24.92L43.5591 24.8868L40.3764 24.3482L40.3707 24.3815ZM35.5519 28.7863L40.3849 24.3773L40.3622 24.3524L35.5292 28.7614L35.5519 28.7863ZM30.3587 30.355L35.5454 28.79L35.5357 28.7578L30.349 30.3228L30.3587 30.355ZM39.0417 23.4541L34.3125 23.1848L34.3106 23.2185L39.0398 23.4877L39.0417 23.4541ZM37.3186 25.0651L39.0521 23.4833L39.0294 23.4584L37.2959 25.0402L37.3186 25.0651ZM34.3027 23.216L37.2984 25.067L37.3161 25.0383L34.3204 23.1873L34.3027 23.216Z" fill="#131415"/>
<path d="M101.585 67.1449L94.4073 59.9672V25.8729H76.463V16.9008H121.324V25.8729H103.38V67.1449H101.585ZM144.723 67.1449C137.785 67.1449 131.863 64.6925 126.958 59.7877C122.054 54.8829 119.601 48.9613 119.601 42.0228C119.601 35.0844 122.054 29.1627 126.958 24.2579C131.863 19.3531 137.785 16.9008 144.723 16.9008H151.901C158.839 16.9008 164.761 19.3531 169.666 24.2579C174.571 29.1627 177.023 35.0844 177.023 42.0228C177.023 48.9613 174.571 54.8829 169.666 59.7877C164.761 64.6925 158.839 67.1449 151.901 67.1449H144.723ZM151.901 58.1727C156.351 58.1727 160.155 56.5936 163.314 53.4354C166.472 50.2772 168.051 46.473 168.051 42.0228C168.051 37.5726 166.472 33.7684 163.314 30.6102C160.155 27.452 156.351 25.8729 151.901 25.8729H144.723C140.273 25.8729 136.469 27.452 133.311 30.6102C130.152 33.7684 128.573 37.5726 128.573 42.0228C128.573 46.473 130.152 50.2772 133.311 53.4354C136.469 56.5936 140.273 58.1727 144.723 58.1727H151.901ZM211.117 43.8173C213.606 43.8173 215.723 42.944 217.47 41.1974C219.216 39.4508 220.089 37.3334 220.089 34.8451C220.089 32.3568 219.216 30.2394 217.47 28.4928C215.723 26.7462 213.606 25.8729 211.117 25.8729H191.379V67.1449H189.584L182.406 59.9672V16.9008H211.117C216.07 16.9008 220.293 18.6593 223.786 22.1764C227.303 25.6696 229.062 29.8925 229.062 34.8451C229.062 39.7977 227.315 44.0206 223.822 47.5138C221.262 50.0739 218.319 51.7008 214.993 52.3947L230.856 67.1449H220.089L204.621 52.7894H194.967V43.8173H211.117ZM281.1 58.1727V59.9672L273.922 67.1449H259.567C252.629 67.1449 246.707 64.6925 241.802 59.7877C236.897 54.8829 234.445 48.9613 234.445 42.0228C234.445 35.0844 236.897 29.1627 241.802 24.2579C246.707 19.3531 252.629 16.9008 259.567 16.9008H281.1V18.6952L273.922 25.8729H259.567C255.117 25.8729 251.313 27.452 248.154 30.6102C244.996 33.7684 243.417 37.5726 243.417 42.0228C243.417 46.473 244.996 50.2772 248.154 53.4354C251.313 56.5936 255.117 58.1727 259.567 58.1727H281.1ZM295.456 16.9008V67.1449H286.484V16.9008H295.456ZM333.139 16.9008V67.1449H324.167V45.6117H297.25V43.8173L302.633 38.434H324.167V16.9008H333.139Z" fill="white"/>
<path d="M389.913 48.854V61.1992C389.913 61.8819 389.704 62.4697 389.287 62.9628C388.908 63.4179 388.32 63.8351 387.524 64.2144C386.575 64.7074 385.267 65.1057 383.598 65.4091C381.929 65.7504 380.242 65.9211 378.535 65.9211C375.008 65.9211 371.879 65.2763 369.148 63.9868C366.455 62.6973 364.35 60.7251 362.833 58.0702C361.316 55.4154 360.558 52.0399 360.558 47.9438C360.558 43.8856 361.335 40.5291 362.89 37.8742C364.483 35.1814 366.588 33.1713 369.205 31.8438C371.822 30.5164 374.685 29.8527 377.795 29.8527C379.957 29.8527 381.854 30.0802 383.484 30.5353C385.115 30.9905 386.386 31.5594 387.296 32.242C388.206 32.9247 388.661 33.6264 388.661 34.347C388.661 34.84 388.51 35.2952 388.206 35.7124C387.903 36.0916 387.543 36.3761 387.125 36.5657C386.101 35.883 384.888 35.2572 383.484 34.6883C382.081 34.0815 380.28 33.7781 378.08 33.7781C375.69 33.7781 373.529 34.3091 371.594 35.371C369.66 36.433 368.124 38.0259 366.986 40.1498C365.886 42.2358 365.336 44.8338 365.336 47.9438C365.336 51.2055 365.905 53.8793 367.043 55.9653C368.219 58.0133 369.812 59.5304 371.822 60.5165C373.832 61.5026 376.089 61.9957 378.592 61.9957C379.957 61.9957 381.247 61.8819 382.46 61.6543C383.674 61.4268 384.622 61.1423 385.305 60.801V50.3332H376.714C376.601 50.1435 376.487 49.897 376.373 49.5936C376.259 49.2522 376.202 48.8919 376.202 48.5127C376.202 47.8679 376.354 47.3749 376.658 47.0335C376.961 46.6543 377.397 46.4646 377.966 46.4646H387.467C388.149 46.4646 388.718 46.6922 389.173 47.1473C389.666 47.5645 389.913 48.1334 389.913 48.854ZM399.679 50.1625L404.231 50.8452V65.0677C404.041 65.1436 403.757 65.2194 403.377 65.2953C402.998 65.4091 402.581 65.466 402.126 65.466C401.329 65.466 400.722 65.3143 400.305 65.0108C399.888 64.6695 399.679 64.1385 399.679 63.4179V50.1625ZM404.231 53.007L399.679 52.3812V28.3166C399.869 28.2408 400.154 28.1649 400.533 28.0891C400.95 27.9753 401.367 27.9184 401.784 27.9184C402.619 27.9184 403.226 28.0891 403.605 28.4304C404.022 28.7338 404.231 29.2458 404.231 29.9664V53.007ZM423.749 62.2232C425.342 62.2232 426.651 62.0715 427.675 61.7681C428.737 61.4268 429.495 61.1044 429.95 60.801V52.5519L422.896 53.2915C420.924 53.4432 419.464 53.8793 418.515 54.5999C417.567 55.3205 417.093 56.3635 417.093 57.7289C417.093 59.1322 417.643 60.2321 418.743 61.0285C419.881 61.825 421.55 62.2232 423.749 62.2232ZM423.692 38.1586C426.992 38.1586 429.609 38.8982 431.543 40.3774C433.478 41.8565 434.445 44.189 434.445 47.3749V60.8579C434.445 61.6922 434.274 62.337 433.933 62.7921C433.629 63.2093 433.155 63.6076 432.51 63.9868C431.6 64.4799 430.387 64.935 428.869 65.3522C427.352 65.7694 425.646 65.978 423.749 65.978C420.184 65.978 417.416 65.2763 415.443 63.873C413.509 62.4697 412.542 60.4407 412.542 57.7858C412.542 55.3205 413.357 53.4432 414.988 52.1536C416.657 50.8262 418.952 50.0297 421.872 49.7643L429.95 48.9678V47.3749C429.95 45.4785 429.381 44.0942 428.244 43.2219C427.106 42.3496 425.57 41.9134 423.636 41.9134C422.081 41.9134 420.582 42.141 419.141 42.5961C417.738 43.0512 416.486 43.5632 415.386 44.1321C415.083 43.8666 414.799 43.5632 414.533 43.2219C414.306 42.8426 414.192 42.4633 414.192 42.0841C414.192 41.098 414.742 40.3394 415.842 39.8085C416.866 39.2775 418.041 38.8792 419.369 38.6138C420.734 38.3103 422.175 38.1586 423.692 38.1586ZM448.441 43.7908V52.7794H443.89V44.1321C443.89 43.2598 444.042 42.5771 444.345 42.0841C444.686 41.5531 445.236 41.0411 445.995 40.548C446.981 39.9033 448.327 39.3533 450.034 38.8982C451.741 38.4052 453.637 38.1586 455.723 38.1586C458.757 38.1586 460.274 38.9172 460.274 40.4342C460.274 40.8135 460.217 41.1738 460.104 41.5152C459.99 41.8186 459.838 42.0841 459.648 42.3116C459.269 42.2358 458.776 42.1599 458.169 42.0841C457.562 42.0082 456.956 41.9703 456.349 41.9703C454.604 41.9703 453.068 42.1599 451.741 42.5392C450.413 42.8805 449.313 43.2977 448.441 43.7908ZM443.89 50.1625L448.441 50.8452V65.0677C448.251 65.1436 447.967 65.2194 447.588 65.2953C447.208 65.4091 446.791 65.466 446.336 65.466C445.54 65.466 444.933 65.3143 444.516 65.0108C444.098 64.6695 443.89 64.1385 443.89 63.4179V50.1625ZM467.845 54.9413L467.617 51.3572L484.798 49.0247C484.646 46.9387 483.926 45.232 482.636 43.9046C481.347 42.5392 479.564 41.8565 477.288 41.8565C474.937 41.8565 472.984 42.7099 471.429 44.4166C469.912 46.0853 469.153 48.4937 469.153 51.6416V52.8932C469.419 55.9274 470.405 58.2409 472.111 59.8338C473.856 61.3888 476.226 62.1663 479.223 62.1663C480.816 62.1663 482.257 61.9008 483.546 61.3699C484.836 60.8389 485.86 60.27 486.618 59.6632C487.036 59.9286 487.358 60.251 487.586 60.6303C487.851 60.9716 487.984 61.3699 487.984 61.825C487.984 62.5456 487.567 63.2283 486.732 63.873C485.936 64.4799 484.855 64.9729 483.489 65.3522C482.162 65.7315 480.664 65.9211 478.995 65.9211C476.075 65.9211 473.534 65.3901 471.372 64.3282C469.248 63.2662 467.598 61.6922 466.422 59.6063C465.285 57.4824 464.716 54.9033 464.716 51.8692C464.716 49.7074 465.019 47.7921 465.626 46.1233C466.271 44.4166 467.143 42.9753 468.243 41.7996C469.381 40.6239 470.727 39.7326 472.282 39.1258C473.837 38.481 475.525 38.1586 477.345 38.1586C479.659 38.1586 481.688 38.6517 483.433 39.6378C485.215 40.6239 486.599 42.0082 487.586 43.7908C488.61 45.5354 489.122 47.5455 489.122 49.8211C489.122 50.6555 488.932 51.2624 488.553 51.6416C488.173 51.983 487.642 52.1916 486.96 52.2674L467.845 54.9413Z" fill="white"/>
</svg>
